#!OML:ASF F:\VICON\USERDATA\INSTALL\rory3\rory3.ASF
:FULLY-SPECIFIED
:DEGREES
1563
root 0.257194 17.5129 -2.19316 -4.78398 -28.0277 2.65896
lowerback 3.42463 -2.07561 -5.54457
upperback 0.504618 -2.94489 2.34384
thorax -0.995363 -1.45858 5.6592
lowerneck -17.6645 -7.30314 -13.2179
upperneck 17.2852 -10.3089 16.6575
head 10.0405 -4.0422 6.60776
rclavicle -1.07903e-014 -1.11319e-014
rhumerus 52.5162 -51.5722 -45.3369
rradius 103.384
rwrist 3.43311
rhand -47.587 0.457384
rfingers 7.12502
rthumb -20.2715 -28.5048
lclavicle -1.07903e-014 -1.11319e-014
lhumerus 29.9409 41.9466 27.4685
lradius 103.515
lwrist 11.0004
lhand -28.971 14.981
lfingers 7.12502
lthumb -2.32373 44.9481
rfemur -15.0225 -4.117 6.5245
rtibia 58.2514
rfoot -17.0701 -14.1887
rtoes 9.10023
lfemur 0.317323 4.68015 -24.428
ltibia 27.2653
lfoot -17.6612 7.60905
ltoes -13.8564
1564
root 0.221894 17.5147 -2.23729 -4.76573 -28.3592 2.84835
lowerback 3.25552 -2.02602 -5.63502
upperback 0.461014 -2.87421 2.26508
thorax -0.955092 -1.42282 5.61951
lowerneck -17.8137 -7.25017 -13.1698
upperneck 17.4423 -10.2688 16.7171
head 10.1185 -4.00573 6.63298
rclavicle -4.71989e-014 7.95139e-015
rhumerus 53.0703 -52.0448 -45.8742
rradius 103.616
rwrist 3.79579
rhand -47.5477 0.375571
rfingers 7.12502
rthumb -20.2338 -28.5906
lclavicle -4.71989e-014 7.95139e-015
lhumerus 30.4509 42.1874 27.7583
lradius 103.81
lwrist 11.1361
lhand -28.966 14.9509
lfingers 7.12502
lthumb -2.31883 44.918
rfemur -14.37 -3.9601 6.03306
rtibia 57.8392
rfoot -17.0671 -15.0457
rtoes 9.51385
lfemur 0.16488 4.9078 -24.4057
ltibia 27.2016
lfoot -17.5467 7.57167
ltoes -13.9128
1565
root 0.185718 17.5192 -2.27976 -4.70573 -28.7005 2.84836
lowerback 3.20324 -2.01054 -5.61198
upperback 0.392123 -2.85058 2.2822
thorax -1.00057 -1.4076 5.62328
lowerneck -17.6593 -7.1481 -13.2582
upperneck 17.4169 -10.1461 16.8497
head 10.0728 -3.95092 6.72062
rclavicle -2.7718e-014 1.51076e-014
rhumerus 53.6284 -52.2829 -46.39
rradius 103.858
rwrist 3.82947
rhand -47.7769 0.466045
rfingers 7.12502
rthumb -20.454 -28.4766
lclavicle -2.7718e-014 1.51076e-014
lhumerus 30.7865 42.4214 27.9828
lradius 104.088
lwrist 11.0534
lhand -28.8957 15.0513
lfingers 7.12502
lthumb -2.25096 45.0191
rfemur -13.6593 -3.78382 5.75602
rtibia 57.3456
rfoot -17.2016 -15.9301
rtoes 9.45529
lfemur 0.056306 5.17768 -24.1759
ltibia 27.1694
lfoot -17.4914 7.52226
ltoes -14.0151
1566
root 0.149834 17.5226 -2.32163 -4.68406 -29.0603 2.88048
lowerback 3.19147 -1.93943 -5.58475
upperback 0.303301 -2.75503 2.27648
thorax -1.10066 -1.3539 5.60119
lowerneck -17.5177 -7.10706 -13.2406
upperneck 17.3893 -10.1152 16.8862
head 10.0323 -3.93962 6.73719
rclavicle -1.76297e-014 2.38542e-015
rhumerus 53.9197 -52.5409 -46.6191
rradius 104.088
rwrist 3.7474
rhand -48.0044 0.504514
rfingers 7.12502
rthumb -20.6726 -28.4145
lclavicle -1.76297e-014 2.38542e-015
lhumerus 31.2551 42.5316 28.3846
lradius 104.317
lwrist 10.8906
lhand -28.886 15.0422
lfingers 7.12502
lthumb -2.24161 45.0102
rfemur -12.9087 -3.54366 5.46245
rtibia 56.7717
rfoot -17.3907 -16.8237
rtoes 10.8267
lfemur -0.0401102 5.39015 -23.994
ltibia 27.1753
lfoot -17.4139 7.5923
ltoes -14.1636
1567
root 0.114394 17.5234 -2.36659 -4.72598 -29.4668 2.90583
lowerback 3.17368 -1.80928 -5.4543
upperback 0.278223 -2.57657 2.21536
thorax -1.1498 -1.26256 5.45798
lowerneck -17.6063 -7.11801 -13.0367
upperneck 17.4992 -10.1521 16.7135
head 10.071 -3.95336 6.63267
rclavicle 3.25013e-014 -6.36111e-015
rhumerus 54.15 -52.9323 -46.8008
rradius 104.199
rwrist 4.02819
rhand -48.2295 0.256385
rfingers 7.12502
rthumb -20.8889 -28.639
lclavicle 3.25013e-014 -6.36111e-015
lhumerus 31.8171 42.6019 28.832
lradius 104.505
lwrist 10.8051
lhand -29.0483 14.8921
lfingers 7.12502
lthumb -2.39831 44.8583
rfemur -12.1037 -3.16859 5.21254
rtibia 56.131
rfoot -17.5625 -17.6373
rtoes 12.2658
lfemur -0.0803778 5.5092 -23.8218
ltibia 27.2125
lfoot -17.3586 7.79875
ltoes -14.373
1568
root 0.0769929 17.5237 -2.41755 -4.7585 -29.8377 2.90402
lowerback 3.21123 -1.75871 -5.31589
upperback 0.169635 -2.50736 2.19239
thorax -1.29939 -1.22073 5.35761
lowerneck -17.3526 -7.03509 -13.1054
upperneck 17.5553 -10.0424 16.6713
head 10.0239 -3.92319 6.65211
rclavicle -1.80149e-015 3.18055e-015
rhumerus 54.4067 -53.0622 -47.0591
rradius 104.274
rwrist 4.30045
rhand -48.4443 0.199477
rfingers 7.12502
rthumb -21.0953 -28.673
lclavicle -1.80149e-015 3.18055e-015
lhumerus 32.0348 42.6455 29.0242
lradius 104.622
lwrist 10.7703
lhand -29.1256 14.9197
lfingers 7.12502
lthumb -2.47297 44.8851
rfemur -11.3025 -2.85969 5.01248
rtibia 55.4369
rfoot -17.6486 -18.2793
rtoes 13.0488
lfemur -0.139898 5.70445 -23.5943
ltibia 27.2518
lfoot -17.2264 7.97976
ltoes -15.0009
